<svg xmlns="http://www.w3.org/2000/svg" width="1024" height="1024" viewBox="-3 -3 1030 1030" fill="none"><g id="deeditor_bgCarrier" stroke-width="0">
    <rect id="dee_c_e" x="-3" y="-3" width="1030" height="1030" rx="0" fill="#ffffff" strokewidth="0"/>
  </g>
<path d="M628.787 375.867L552.728 369.473C552.099 369.419 551.948 369.663 552.274 370.207L564.467 390.739C564.551 390.882 564.589 391.048 564.574 391.215C564.56 391.382 564.494 391.541 564.385 391.67C545.255 414.628 529.04 437.369 515.74 459.892C492.518 499.209 477.798 541.822 469.459 586.589C469.444 586.668 469.409 586.743 469.357 586.805C469.305 586.867 469.237 586.915 469.162 586.944C469.086 586.974 469.004 586.983 468.924 586.972C468.843 586.96 468.767 586.929 468.702 586.88C435.271 561.002 400.143 537.703 363.318 516.981C331.979 499.36 298.939 484.046 264.036 474.997C263.47 474.85 263.439 474.624 263.943 474.322C346.012 425.432 395.286 339.497 398.675 243.895C398.679 243.711 398.725 243.532 398.81 243.372C398.895 243.212 399.016 243.076 399.164 242.975L528.562 154.198C529.09 153.833 529.35 153.973 529.343 154.617C527.84 245.176 495.593 332.719 441.614 404.725C441.303 405.137 441.051 405.106 440.857 404.632L431.633 382.982C431.4 382.439 431.152 382.431 430.888 382.959L395.042 453.906C395.007 453.976 394.99 454.053 394.992 454.13C394.994 454.208 395.015 454.283 395.053 454.351C395.091 454.419 395.144 454.476 395.209 454.518C395.274 454.561 395.349 454.586 395.426 454.593L471.462 460.999C472.247 461.069 472.437 460.766 472.033 460.09L459.956 439.861C459.867 439.715 459.826 439.544 459.839 439.373C459.851 439.202 459.917 439.039 460.026 438.906C493.368 398.472 522.076 354.322 539.032 305.304C545.336 287.098 550.701 266.628 555.127 243.895C555.139 243.835 555.167 243.78 555.206 243.733C555.245 243.686 555.295 243.65 555.35 243.628C555.406 243.606 555.466 243.599 555.525 243.607C555.584 243.615 555.639 243.638 555.686 243.674C589.909 270.04 625.864 293.747 663.551 314.795C694.016 331.822 726.497 346.892 760.363 355.451C760.938 355.591 760.973 355.812 760.468 356.115C679.995 404.399 630.802 487.691 626.016 581.476C625.938 582.897 625.977 584.325 626.132 585.762C626.139 585.837 626.134 585.913 626.116 585.984C626.098 586.056 626.068 586.122 626.027 586.178C625.987 586.235 625.938 586.281 625.881 586.313C625.825 586.346 625.764 586.364 625.701 586.367C625.201 586.379 625.305 586.414 625.096 586.041C615.608 568.728 606.055 551.398 596.435 534.054C595.977 533.231 595.643 533.277 595.433 534.193C589.673 558.999 587.316 584.791 588.364 611.569C588.379 611.958 588.294 612.345 588.116 612.693C587.939 613.042 587.676 613.34 587.351 613.561L496.152 676.099C495.414 676.604 495.053 676.41 495.069 675.517C496.548 585.424 528.807 498.149 582.658 425.968C583.038 425.455 583.349 425.49 583.59 426.073L592.662 447.629C592.902 448.188 593.159 448.2 593.43 447.664L629.253 376.705C629.298 376.621 629.322 376.527 629.321 376.432C629.32 376.336 629.295 376.243 629.249 376.159C629.203 376.076 629.136 376.005 629.055 375.954C628.975 375.903 628.883 375.873 628.787 375.867Z" fill="black"/>
<path d="M144.619 784.535L195.814 784.581C195.972 784.581 196.123 784.643 196.234 784.752C196.346 784.861 196.408 785.009 196.408 785.164L196.373 800.024C196.37 800.179 196.306 800.327 196.195 800.436C196.084 800.545 195.935 800.606 195.779 800.606H128.978C128.852 800.608 128.726 800.584 128.609 800.536C128.492 800.488 128.385 800.417 128.296 800.327C128.206 800.237 128.134 800.13 128.085 800.012C128.037 799.894 128.012 799.767 128.012 799.639L128 712.085C128 711.932 128.057 711.785 128.161 711.673C128.264 711.56 128.407 711.491 128.559 711.48C133.512 711.068 138.477 711.076 143.454 711.503C143.612 711.52 143.757 711.595 143.863 711.714C143.968 711.832 144.026 711.985 144.025 712.143L144.013 783.929C144.013 784.09 144.077 784.244 144.191 784.357C144.304 784.471 144.458 784.535 144.619 784.535Z" fill="black"/>
<path d="M230.845 747.85L281.75 747.896C281.883 747.896 282.01 747.947 282.104 748.036C282.198 748.126 282.251 748.247 282.251 748.374L282.157 763.572C282.157 763.729 282.094 763.881 281.98 763.992C281.866 764.103 281.712 764.166 281.552 764.166L231.171 764.201C230.903 764.201 230.645 764.309 230.455 764.501C230.265 764.693 230.158 764.954 230.158 765.226L230.042 783.976C230.04 784.056 230.055 784.136 230.085 784.211C230.114 784.286 230.159 784.354 230.215 784.411C230.271 784.469 230.339 784.515 230.413 784.546C230.487 784.577 230.567 784.593 230.647 784.593L281.82 784.605C281.903 784.605 281.986 784.621 282.063 784.654C282.14 784.686 282.21 784.733 282.269 784.793C282.327 784.852 282.373 784.923 282.404 785.001C282.435 785.078 282.45 785.161 282.449 785.245L282.274 800C282.274 800.158 282.213 800.309 282.103 800.42C281.994 800.532 281.846 800.594 281.692 800.594L214.506 800.571C214.352 800.571 214.204 800.51 214.094 800.401C213.985 800.291 213.924 800.143 213.924 799.989L213.901 712.563C213.901 712.223 214.037 711.897 214.279 711.657C214.522 711.417 214.85 711.282 215.193 711.282H281.668C281.772 711.282 281.874 711.302 281.97 711.343C282.065 711.383 282.152 711.443 282.224 711.518C282.297 711.592 282.354 711.681 282.393 711.779C282.431 711.876 282.45 711.98 282.449 712.085L282.286 726.957C282.286 727.112 282.225 727.26 282.118 727.369C282.011 727.478 281.866 727.539 281.715 727.539L230.717 727.609C230.563 727.609 230.415 727.671 230.306 727.78C230.196 727.889 230.135 728.037 230.135 728.192L230.263 747.268C230.263 747.422 230.324 747.57 230.434 747.679C230.543 747.789 230.691 747.85 230.845 747.85Z" fill="black"/>
<path d="M351.521 764.282L332.957 764.247C332.579 764.247 332.217 764.101 331.948 763.839C331.68 763.577 331.528 763.222 331.525 762.85L331.513 748.782C331.513 748.565 331.599 748.358 331.752 748.205C331.905 748.052 332.112 747.966 332.328 747.966L367.802 748.036C367.958 748.039 368.108 748.103 368.218 748.214C368.329 748.324 368.393 748.474 368.396 748.63C368.497 760.532 368.532 772.376 368.501 784.162C368.477 794.282 364.96 800.583 354.339 800.618C341.28 800.649 328.217 800.633 315.15 800.571C303.633 800.525 299.743 794.049 299.766 783.37C299.82 752.019 299.817 733.219 299.754 726.969C299.692 720.478 302.01 715.948 306.707 713.378C308.897 712.175 312.359 711.522 317.095 711.421C329.626 711.142 342.161 711.142 354.7 711.421C370.038 711.771 368.57 724.872 368.466 735.971C368.464 736.177 368.421 736.382 368.34 736.571C368.259 736.761 368.14 736.932 367.991 737.076C367.843 737.219 367.667 737.331 367.474 737.405C367.282 737.479 367.076 737.515 366.87 737.508L352.976 737.077C352.763 737.071 352.56 736.979 352.41 736.821C352.261 736.663 352.176 736.45 352.173 736.227L352.161 731.01C352.146 728.72 350.969 727.574 348.633 727.574L319.925 727.598C317.363 727.598 316.082 728.89 316.082 731.476V780.365C316.082 783.153 317.464 784.546 320.228 784.546L348.353 784.558C350.892 784.558 352.157 783.3 352.15 780.785L352.126 764.876C352.123 764.718 352.058 764.567 351.945 764.456C351.832 764.345 351.679 764.282 351.521 764.282Z" fill="black"/>
<path d="M402.052 784.022C402.051 784.097 402.064 784.171 402.092 784.24C402.119 784.309 402.16 784.372 402.212 784.425C402.264 784.478 402.326 784.52 402.395 784.549C402.463 784.578 402.537 784.593 402.611 784.593L453.819 784.605C453.889 784.605 453.959 784.618 454.024 784.645C454.089 784.672 454.148 784.712 454.198 784.761C454.247 784.811 454.287 784.87 454.314 784.935C454.341 785 454.354 785.07 454.354 785.14L454.378 800.035C454.378 800.187 454.316 800.332 454.207 800.439C454.098 800.546 453.95 800.606 453.795 800.606L386.575 800.571C386.421 800.571 386.272 800.51 386.163 800.401C386.054 800.291 385.993 800.143 385.993 799.989L385.969 711.829C385.969 711.696 386.022 711.569 386.116 711.475C386.21 711.381 386.337 711.328 386.47 711.328C408.621 711.2 431.854 710.047 453.889 711.654C454.052 711.666 454.205 711.739 454.315 711.859C454.426 711.978 454.486 712.134 454.483 712.295L454.121 726.969C454.118 727.127 454.053 727.279 453.94 727.39C453.827 727.501 453.675 727.563 453.516 727.563L402.763 727.621C402.608 727.621 402.46 727.682 402.351 727.792C402.242 727.901 402.181 728.049 402.181 728.203L402.274 747.291C402.274 747.449 402.335 747.6 402.444 747.711C402.553 747.822 402.702 747.885 402.856 747.885L453.784 747.908C453.935 747.908 454.08 747.968 454.187 748.075C454.294 748.182 454.354 748.328 454.354 748.479L454.378 763.584C454.378 763.754 454.31 763.916 454.19 764.037C454.07 764.157 453.907 764.224 453.737 764.224L402.833 764.247C402.683 764.248 402.54 764.31 402.433 764.421C402.327 764.532 402.265 764.683 402.262 764.841L402.052 784.022Z" fill="black"/>
<path d="M524.451 769.5L524.323 712.167C524.323 712.002 524.384 711.844 524.493 711.726C524.602 711.609 524.75 711.541 524.906 711.538L539.929 711.317C540.096 711.317 540.256 711.387 540.374 711.511C540.492 711.635 540.558 711.804 540.558 711.98V800.059C540.558 800.201 540.501 800.337 540.401 800.438C540.3 800.538 540.164 800.594 540.022 800.594L522.542 800.583C522.365 800.583 522.19 800.535 522.037 800.445C521.884 800.355 521.756 800.226 521.668 800.07L489.199 742.027C488.477 740.746 488.116 740.843 488.116 742.318L488.081 800.105C488.081 800.183 488.066 800.259 488.036 800.331C488.007 800.402 487.964 800.467 487.91 800.521C487.856 800.575 487.791 800.618 487.721 800.647C487.65 800.675 487.575 800.689 487.499 800.688L472.487 800.455C472.332 800.452 472.183 800.387 472.075 800.273C471.966 800.16 471.905 800.008 471.905 799.849L471.87 712.202C471.87 712.04 471.932 711.885 472.043 711.769C472.154 711.654 472.305 711.588 472.464 711.584L489.397 711.235C489.71 711.227 490.021 711.31 490.298 711.474C490.575 711.638 490.807 711.878 490.969 712.167L523.252 769.826C524.059 771.262 524.459 771.154 524.451 769.5Z" fill="black"/>
<path d="M610.247 711.445C619.121 711.584 626.447 715.765 626.435 725.571C626.427 745.688 626.447 765.835 626.493 786.014C626.516 794.434 620.589 800.362 612.145 800.571C606.718 800.703 588.881 800.703 558.632 800.571C558.478 800.571 558.33 800.509 558.22 800.397C558.111 800.286 558.05 800.135 558.05 799.977L558.015 712.027C558.015 711.838 558.089 711.656 558.222 711.521C558.355 711.385 558.536 711.308 558.725 711.305C575.884 711.119 593.058 711.165 610.247 711.445ZM607.871 728.04C607.219 727.706 606.528 727.539 605.798 727.539L575.531 727.551C575.209 727.551 574.901 727.679 574.674 727.906C574.447 728.133 574.319 728.441 574.319 728.762L574.331 783.626C574.331 783.755 574.356 783.882 574.405 784.001C574.453 784.119 574.524 784.227 574.614 784.318C574.704 784.409 574.81 784.481 574.928 784.53C575.045 784.579 575.171 784.605 575.298 784.605L606.299 784.57C608.853 784.562 610.131 783.281 610.131 780.726C610.146 764.616 610.15 748.227 610.142 731.557C610.142 729.775 609.35 728.797 607.871 728.04Z" fill="black"/>
<path d="M695.659 784.674L666.94 784.372C666.763 784.371 666.593 784.424 666.452 784.523C666.312 784.621 666.209 784.76 666.159 784.919L661.326 799.779C661.245 800.023 661.095 800.236 660.896 800.387C660.698 800.537 660.461 800.618 660.22 800.618L644.603 800.606C644.535 800.605 644.469 800.589 644.409 800.558C644.35 800.528 644.298 800.483 644.258 800.429C644.219 800.375 644.192 800.312 644.181 800.245C644.17 800.179 644.175 800.111 644.195 800.047L672.297 712.12C672.353 711.954 672.454 711.808 672.589 711.7C672.723 711.592 672.885 711.528 673.054 711.515C678.504 711.088 683.853 711.064 689.102 711.445C689.315 711.462 689.519 711.542 689.686 711.674C689.854 711.807 689.979 711.987 690.045 712.19L718.252 800.198C718.274 800.264 718.28 800.334 718.269 800.402C718.258 800.471 718.23 800.536 718.188 800.592C718.145 800.648 718.09 800.693 718.026 800.724C717.962 800.755 717.892 800.77 717.821 800.769L701.912 800.594C701.743 800.591 701.578 800.535 701.443 800.435C701.307 800.335 701.206 800.195 701.155 800.035L696.427 785.222C696.376 785.065 696.275 784.929 696.137 784.831C695.999 784.733 695.832 784.678 695.659 784.674ZM671.493 767.834C671.477 767.889 671.473 767.946 671.483 768.002C671.493 768.058 671.516 768.11 671.55 768.156C671.584 768.201 671.628 768.238 671.679 768.263C671.73 768.288 671.786 768.301 671.843 768.3H690.523C690.579 768.301 690.635 768.288 690.686 768.263C690.737 768.238 690.781 768.201 690.815 768.156C690.849 768.11 690.872 768.058 690.882 768.002C690.892 767.946 690.888 767.889 690.872 767.834L681.532 738.498C681.512 738.421 681.467 738.352 681.403 738.304C681.34 738.255 681.263 738.228 681.183 738.228C681.103 738.228 681.025 738.255 680.962 738.304C680.899 738.352 680.853 738.421 680.833 738.498L671.493 767.834Z" fill="black"/>
<path d="M771.939 764.282L752.665 764.399C752.505 764.399 752.351 764.461 752.237 764.573C752.124 764.684 752.06 764.835 752.06 764.993L752.363 799.407C752.364 799.56 752.336 799.712 752.281 799.854C752.226 799.996 752.145 800.125 752.042 800.234C751.939 800.342 751.816 800.428 751.681 800.486C751.546 800.544 751.402 800.573 751.256 800.571L736.547 800.455C736.393 800.455 736.245 800.39 736.136 800.274C736.026 800.158 735.965 800.001 735.965 799.837L735.942 711.841C735.942 711.716 735.99 711.596 736.078 711.507C736.165 711.418 736.283 711.366 736.408 711.363C754.304 711.123 772.188 711.146 790.061 711.433C799.028 711.573 804.327 716.231 804.327 725.315C804.335 733.475 804.342 741.643 804.35 749.818C804.362 758.029 800.181 763.386 791.761 764.282C791.696 764.289 791.633 764.311 791.578 764.347C791.524 764.383 791.478 764.432 791.446 764.489C791.414 764.546 791.397 764.61 791.395 764.675C791.393 764.741 791.406 764.806 791.435 764.865L807.506 800.082C807.533 800.142 807.544 800.208 807.539 800.273C807.533 800.339 807.511 800.402 807.474 800.458C807.437 800.513 807.386 800.559 807.327 800.591C807.267 800.623 807.201 800.64 807.134 800.641L790.037 800.629C789.78 800.63 789.529 800.556 789.314 800.418C789.099 800.279 788.93 800.082 788.826 799.849L772.778 764.818C772.702 764.655 772.582 764.518 772.433 764.423C772.284 764.328 772.113 764.279 771.939 764.282ZM785.565 728.064C784.905 727.722 784.207 727.551 783.469 727.551H753.166C752.933 727.551 752.71 727.644 752.544 727.81C752.379 727.975 752.284 728.2 752.281 728.436L751.862 747.058C751.86 747.171 751.881 747.283 751.922 747.387C751.964 747.492 752.025 747.587 752.103 747.667C752.181 747.747 752.274 747.811 752.377 747.854C752.479 747.898 752.589 747.92 752.7 747.92L784.832 747.908C787.401 747.908 788.566 746.65 788.325 744.135C787.937 740.214 787.891 736.301 788.186 732.396C788.395 729.612 787.79 729.228 785.565 728.064Z" fill="black"/>
<path d="M858.807 740.42L876.602 712.341C876.714 712.164 876.867 712.015 877.048 711.905C877.23 711.796 877.436 711.73 877.65 711.713C884.039 711.185 890.049 711.119 895.678 711.515C895.738 711.519 895.796 711.539 895.846 711.573C895.896 711.607 895.936 711.653 895.963 711.707C895.99 711.761 896.003 711.821 896 711.881C895.997 711.941 895.978 711.999 895.945 712.05L866.621 758.168C866.423 758.488 866.318 758.859 866.318 759.24L866.388 799.791C866.388 799.958 866.328 800.118 866.221 800.236C866.114 800.353 865.969 800.42 865.817 800.42L850.829 800.466C850.678 800.466 850.533 800.403 850.426 800.289C850.319 800.175 850.258 800.021 850.258 799.861L850.282 759.065C850.282 758.692 850.168 758.316 849.956 757.982L820.689 712.05C820.379 711.561 820.526 711.317 821.132 711.317L838.624 711.352C838.867 711.352 839.102 711.406 839.307 711.51C839.513 711.614 839.682 711.764 839.8 711.945L857.863 740.42C857.914 740.499 857.983 740.565 858.066 740.61C858.148 740.655 858.241 740.679 858.335 740.679C858.429 740.679 858.521 740.655 858.604 740.61C858.686 740.565 858.756 740.499 858.807 740.42Z" fill="black"/>
<path d="M392.153 822.058C399.001 826.914 397.254 837.139 397.033 844.29C396.765 852.908 391.14 854.76 383.291 854.76C359.044 854.775 334.758 854.779 310.434 854.771C310.343 854.771 310.252 854.791 310.168 854.828C310.084 854.866 310.008 854.921 309.944 854.99C309.88 855.059 309.829 855.142 309.796 855.232C309.762 855.323 309.745 855.419 309.747 855.517L309.851 868.292C309.853 868.374 309.839 868.456 309.809 868.532C309.779 868.608 309.735 868.678 309.678 868.736C309.622 868.795 309.555 868.841 309.48 868.873C309.406 868.905 309.326 868.921 309.246 868.921L300.733 868.898C300.578 868.898 300.43 868.83 300.321 868.71C300.212 868.59 300.15 868.427 300.15 868.257L300.22 821.243C300.22 821.088 300.283 820.94 300.394 820.831C300.506 820.722 300.657 820.66 300.814 820.66L387.868 820.695C389.444 820.695 390.872 821.149 392.153 822.058ZM384.467 830.874C383.857 830.515 383.161 830.326 382.452 830.327H310.422C310.255 830.327 310.095 830.394 309.977 830.514C309.859 830.634 309.793 830.797 309.793 830.967L309.991 844.278C309.991 844.433 310.051 844.581 310.158 844.69C310.265 844.799 310.411 844.861 310.562 844.861C334.335 844.884 358.108 844.884 381.882 844.861C383.605 844.861 386.528 843.813 386.866 842.287C387.216 840.719 387.386 839.131 387.379 837.524C387.363 834.232 386.393 832.015 384.467 830.874Z" fill="black"/>
<path d="M675.29 859.581C662.444 846.98 649.948 833.879 637.254 821.173C636.78 820.691 636.881 820.458 637.557 820.474L650.822 820.765C651.203 820.773 651.558 820.919 651.811 821.173L680.065 849.496C680.109 849.54 680.161 849.575 680.219 849.599C680.277 849.623 680.34 849.636 680.402 849.636C680.465 849.636 680.527 849.623 680.585 849.599C680.643 849.575 680.696 849.54 680.74 849.496L709.075 821.103C709.255 820.922 709.487 820.778 709.757 820.678C710.027 820.578 710.329 820.524 710.647 820.521L723.12 820.427C723.787 820.42 723.896 820.645 723.446 821.103L685.899 858.976C685.748 859.126 685.628 859.292 685.546 859.462C685.464 859.632 685.422 859.804 685.422 859.966L685.41 868.234C685.407 868.447 685.329 868.65 685.193 868.798C685.058 868.947 684.876 869.029 684.688 869.026L676.221 869.003C676.064 869.003 675.913 868.94 675.801 868.829C675.69 868.717 675.627 868.566 675.627 868.409L675.697 860.571C675.698 860.383 675.662 860.199 675.592 860.029C675.522 859.859 675.419 859.706 675.29 859.581Z" fill="black"/>
<path d="M435.814 859.651L507.309 859.709C507.475 859.71 507.636 859.769 507.762 859.875C507.888 859.982 507.971 860.13 507.996 860.292C508.438 863.024 508.438 865.742 507.996 868.444C507.971 868.605 507.889 868.753 507.765 868.859C507.641 868.966 507.484 869.025 507.32 869.026L425.636 869.038C425.527 869.038 425.424 868.993 425.347 868.915C425.271 868.836 425.228 868.73 425.228 868.618L425.263 821.615C425.264 821.45 425.323 821.291 425.43 821.167C425.537 821.043 425.684 820.962 425.845 820.94C428.78 820.521 431.668 820.521 434.51 820.94C434.666 820.963 434.808 821.044 434.909 821.169C435.01 821.293 435.062 821.452 435.057 821.615C434.661 834.131 434.712 846.611 435.208 859.057C435.215 859.217 435.281 859.368 435.394 859.478C435.507 859.589 435.657 859.651 435.814 859.651Z" fill="black"/>
<path d="M554.323 860.944L546.788 868.653C546.663 868.779 546.509 868.878 546.338 868.946C546.166 869.014 545.978 869.049 545.787 869.049L533.011 869.014C532.39 869.014 532.301 868.789 532.743 868.339L579.432 821.091C579.557 820.966 579.709 820.866 579.879 820.798C580.049 820.73 580.233 820.695 580.422 820.695L588.982 820.637C589.17 820.637 589.354 820.672 589.524 820.74C589.694 820.808 589.846 820.907 589.972 821.033L637.079 868.525C637.413 868.859 637.343 869.026 636.87 869.026L623.826 869.061C623.452 869.061 623.094 868.919 622.825 868.665L614.009 860.105C613.747 859.852 613.388 859.71 613.007 859.709H557.107C556.609 859.709 556.107 859.819 555.629 860.031C555.151 860.243 554.707 860.553 554.323 860.944ZM566.132 849.1C566.074 849.157 566.034 849.23 566.018 849.31C566.002 849.39 566.01 849.473 566.041 849.548C566.073 849.623 566.126 849.687 566.194 849.732C566.262 849.776 566.342 849.8 566.423 849.799L603.178 849.857C603.26 849.858 603.339 849.835 603.408 849.79C603.476 849.745 603.529 849.681 603.56 849.606C603.592 849.531 603.6 849.448 603.583 849.368C603.567 849.288 603.527 849.215 603.469 849.158L585.127 830.746C585.089 830.707 585.044 830.676 584.994 830.655C584.944 830.634 584.89 830.623 584.836 830.623C584.781 830.623 584.728 830.634 584.678 830.655C584.628 830.676 584.582 830.707 584.545 830.746L566.132 849.1Z" fill="black"/>
</svg>